<svg width="12" height="11" viewBox="0 0 12 11" fill="none" xmlns="http://www.w3.org/2000/svg">
<rect width="12" height="11" fill="#1E1E1E"/>
<path id="Vector" d="M5.6878 10.5C5.51217 10.4998 5.34068 10.4467 5.19562 10.3477C3.04667 8.88891 2.11616 7.88867 1.60292 7.26332C0.509171 5.93031 -0.014462 4.56176 0.00030363 3.07973C0.0175302 1.38141 1.38007 0 3.03765 0C4.24296 0 5.07776 0.678945 5.56394 1.24441C5.57934 1.26215 5.59837 1.27637 5.61974 1.28611C5.6411 1.29585 5.66432 1.3009 5.6878 1.3009C5.71129 1.3009 5.7345 1.29585 5.75587 1.28611C5.77724 1.27637 5.79627 1.26215 5.81167 1.24441C6.29784 0.678398 7.13265 0 8.33796 0C9.99554 0 11.3581 1.38141 11.3753 3.08C11.3901 4.5623 10.8659 5.93086 9.77269 7.26359C9.25944 7.88895 8.32894 8.88918 6.17999 10.348C6.0349 10.4469 5.8634 10.4999 5.6878 10.5Z" fill="current"/>
</svg>
