<svg width="16" height="16" viewBox="0 0 16 16" fill="none" xmlns="http://www.w3.org/2000/svg">
<g id="ion:send">
<path id="Vector" d="M14.8934 7.09527L14.8884 7.09308L1.54219 1.55746C1.42993 1.51047 1.30778 1.49204 1.18666 1.50382C1.06554 1.5156 0.949225 1.55722 0.848125 1.62496C0.741311 1.69495 0.653573 1.79039 0.592805 1.90271C0.532037 2.01503 0.500145 2.14069 0.5 2.26839V5.80871C0.50006 5.98328 0.561019 6.15237 0.67237 6.28683C0.783722 6.42128 0.938491 6.51268 1.11 6.54527L8.38906 7.89121C8.41767 7.89663 8.44348 7.91186 8.46205 7.93429C8.48062 7.95671 8.49078 7.98491 8.49078 8.01402C8.49078 8.04313 8.48062 8.07133 8.46205 8.09375C8.44348 8.11617 8.41767 8.13141 8.38906 8.13683L1.11031 9.48277C0.938851 9.51527 0.784092 9.60655 0.67269 9.74088C0.561288 9.87522 0.500219 10.0442 0.5 10.2187V13.7596C0.499917 13.8816 0.530111 14.0016 0.587871 14.109C0.645632 14.2164 0.729152 14.3078 0.830938 14.375C0.953375 14.4563 1.09706 14.4998 1.24406 14.5C1.34626 14.4999 1.4474 14.4794 1.54156 14.4396L14.8875 8.93558L14.8934 8.93277C15.0731 8.85556 15.2262 8.72739 15.3337 8.56409C15.4413 8.4008 15.4986 8.20955 15.4986 8.01402C15.4986 7.81848 15.4413 7.62724 15.3337 7.46395C15.2262 7.30065 15.0731 7.17247 14.8934 7.09527Z" fill="#D1D1D5"/>
</g>
</svg>
